<?xml version="1.0" encoding="UTF-8"?>
<svg width="90px" height="91px" viewBox="0 0 90 91" version="1.1" xmlns="http://www.w3.org/2000/svg" xmlns:xlink="http://www.w3.org/1999/xlink">
    <!-- Generator: Sketch 42 (36781) - http://www.bohemiancoding.com/sketch -->
    <title>Untitled 3</title>
    <desc>Created with Sketch.</desc>
    <defs></defs>
    <g id="Page-1" stroke="none" stroke-width="1" fill="none" fill-rule="evenodd">
        <g id="noun_634733_cc" transform="translate(0.000000, -1.000000)" fill-rule="nonzero" fill="#FFFFFF">
            <g id="Group" transform="translate(0.000000, 0.637820)">
                <path d="M45,0.36218 C20.182716,0.36218 0,20.5449 0,45.36218 C0,70.17948 20.182716,90.36218 45,90.36218 C69.817284,90.36218 90,70.17948 90,45.36218 C90,20.5449 69.817284,0.36218 45,0.36218 Z M45,6.36218 C66.574644,6.36218 84,23.78754 84,45.36218 C84,66.93678 66.574644,84.36218 45,84.36218 C23.425356,84.36218 6,66.93678 6,45.36218 C6,23.78754 23.425356,6.36218 45,6.36218 Z M45,20.36218 C36.751258,20.36218 30,27.11345 30,35.36218 C29.9846991,36.4440877 30.5531259,37.4504241 31.4876185,37.9958432 C32.4221112,38.5412622 33.5778888,38.5412622 34.5123815,37.9958432 C35.4468741,37.4504241 36.0153009,36.4440877 36,35.36218 C36,30.35609 39.993902,26.36218 45,26.36218 C50.006098,26.36218 54,30.35609 54,35.36218 C54.03569,39.47026 51.919738,41.57248 48.96875,44.36218 C47.493256,45.75698 45.854944,47.20798 44.46875,49.11218 C43.082556,51.01638 42,53.49098 42,56.36218 C41.9846991,57.4440877 42.5531259,58.4504241 43.4876185,58.9958432 C44.4221112,59.5412622 45.5778888,59.5412622 46.5123815,58.9958432 C47.4468741,58.4504241 48.0153009,57.4440877 48,56.36218 C48,54.87968 48.434418,53.84973 49.3125,52.64343 C50.190582,51.43723 51.557823,50.15783 53.09375,48.70593 C56.160229,45.80703 60.04182,41.75272 60,35.36218 C59.999927,35.35098 60.000097,35.34213 60,35.33093 C59.982813,27.09649 53.238224,20.36218 45,20.36218 Z M45,62.36218 C42.790849,62.36218 41,64.15298 41,66.36218 C41,68.57128 42.790849,70.36218 45,70.36218 C47.209151,70.36218 49,68.57128 49,66.36218 C49,64.15298 47.209151,62.36218 45,62.36218 Z" id="Shape"></path>
            </g>
        </g>
    </g>
</svg>