<?xml version="1.0" encoding="UTF-8"?>
<svg width="16px" height="16px" viewBox="0 0 16 16" version="1.1" xmlns="http://www.w3.org/2000/svg" xmlns:xlink="http://www.w3.org/1999/xlink">
    <!-- Generator: Sketch 41.2 (35397) - http://www.bohemiancoding.com/sketch -->
    <title>icon-nav-organizations</title>
    <desc>Created with Sketch.</desc>
    <defs></defs>
    <g id="Home" stroke="none" stroke-width="1" fill="none" fill-rule="evenodd">
        <g id="icon-nav-organizations" fill="#F3F5F7">
            <g id="org">
                <path d="M15.7471757,14.2320108 L14.0499696,14.2320108 L14.0499696,12.9754115 C14.0499696,12.8368391 13.9366126,12.7266111 13.801214,12.7266111 L13.7287914,12.7266111 L13.7287914,6.46251077 L13.801214,6.46251077 C13.9397614,6.46251077 14.0499696,6.34913339 14.0499696,6.21371041 L14.0499696,4.95711109 L15.7471757,4.95711109 C15.8605327,4.95711109 15.9581457,4.88152617 15.9896337,4.77129816 C16.017973,4.66107015 15.9707409,4.54769277 15.8731279,4.49100408 L8.12391787,0.0346430889 C8.04834655,-0.00944811516 7.95073358,-0.00944811516 7.87516225,0.0346430889 L0.125952215,4.4878547 C0.0283392484,4.54454339 -0.0188928323,4.66107015 0.00944641613,4.76814879 C0.0377856645,4.8783768 0.138547437,4.95396172 0.25190443,4.95396172 L1.94911053,4.95396172 L1.94911053,6.21056104 C1.94911053,6.34913339 2.06246752,6.4593614 2.19786615,6.4593614 L2.27028868,6.4593614 L2.27028868,12.7234618 L2.19786615,12.7234618 C2.05931872,12.7234618 1.94911053,12.8368391 1.94911053,12.9722621 L1.94911053,14.2288614 L0.248755625,14.2288614 C0.110208188,14.2288614 0,14.3422388 0,14.4776618 L0,15.7437092 C0,15.8822816 0.113356994,15.9925096 0.248755625,15.9925096 L15.7440269,15.9925096 C15.8825743,15.9925096 15.9927825,15.8791322 15.9927825,15.7437092 L15.9927825,14.4776618 C15.9959313,14.3422388 15.8825743,14.2320108 15.7471757,14.2320108 Z M9.26378542,14.2320108 L9.26378542,12.9754115 C9.26378542,12.8368391 9.15042843,12.7266111 9.0150298,12.7266111 L8.94260727,12.7266111 L8.94260727,6.46251077 L9.0150298,6.46251077 C9.15357723,6.46251077 9.26378542,6.34913339 9.26378542,6.21371041 L9.26378542,4.95711109 L11.5120325,4.95711109 L11.5120325,6.21371041 C11.5120325,6.35228276 11.6253895,6.46251077 11.7607881,6.46251077 L11.8332106,6.46251077 L11.8332106,12.7234618 L11.7607881,12.7234618 C11.6222406,12.7234618 11.5120325,12.8368391 11.5120325,12.9722621 L11.5120325,14.2288614 L9.26378542,14.2288614 L9.26378542,14.2320108 Z M4.48075005,14.2320108 L4.48075005,12.9754115 C4.48075005,12.8368391 4.36739306,12.7266111 4.23199443,12.7266111 L4.1564231,12.7266111 L4.1564231,6.46251077 L4.22884562,6.46251077 C4.36739306,6.46251077 4.47760125,6.34913339 4.47760125,6.21371041 L4.47760125,4.95711109 L6.72584829,4.95711109 L6.72584829,6.21371041 C6.72584829,6.35228276 6.83920528,6.46251077 6.97460391,6.46251077 L7.04702644,6.46251077 L7.04702644,12.7234618 L6.97460391,12.7234618 C6.83605648,12.7234618 6.72584829,12.8368391 6.72584829,12.9722621 L6.72584829,14.2288614 L4.48075005,14.2288614 L4.48075005,14.2320108 Z M8.44194722,12.7234618 L7.5539841,12.7234618 L7.5539841,6.46251077 L8.44194722,6.46251077 L8.44194722,12.7234618 Z M8.76627417,5.96176067 L8.69070284,5.96176067 L7.30522848,5.96176067 L7.23280595,5.96176067 L7.23280595,4.95396172 L8.76627417,4.95396172 L8.76627417,5.96176067 Z M7.22965715,13.2242119 L7.30207967,13.2242119 L8.69070284,13.2242119 L8.76312537,13.2242119 L8.76312537,14.2320108 L7.22965715,14.2320108 L7.22965715,13.2242119 L7.22965715,13.2242119 Z M12.0158413,13.2242119 L12.0882638,13.2242119 L13.476887,13.2242119 L13.5493095,13.2242119 L13.5493095,14.2320108 L12.0158413,14.2320108 L12.0158413,13.2242119 Z M13.2249826,12.7234618 L12.3370195,12.7234618 L12.3370195,6.46251077 L13.2249826,6.46251077 L13.2249826,12.7234618 Z M13.5493095,5.96176067 L13.476887,5.96176067 L12.0882638,5.96176067 L12.0158413,5.96176067 L12.0158413,4.95396172 L13.5493095,4.95396172 L13.5493095,5.96176067 L13.5493095,5.96176067 Z M7.99796566,0.538542564 L14.8088317,4.45636099 L13.7980652,4.45636099 L11.7639369,4.45636099 L9.0150298,4.45636099 L6.98090152,4.45636099 L4.23199443,4.45636099 L2.19786615,4.45636099 L1.18709963,4.45636099 L7.99796566,0.538542564 Z M3.98009,4.95396172 L3.98009,5.96176067 L3.90766747,5.96176067 L2.5190443,5.96176067 L2.44662178,5.96176067 L2.44662178,4.95396172 L3.98009,4.95396172 Z M2.77094873,6.46251077 L3.65891185,6.46251077 L3.65891185,12.7234618 L2.77094873,12.7234618 L2.77094873,6.46251077 Z M2.44662178,13.2242119 L2.5190443,13.2242119 L3.90766747,13.2242119 L3.98009,13.2242119 L3.98009,14.2320108 L2.44662178,14.2320108 L2.44662178,13.2242119 Z M15.4952713,15.4980582 L0.500660055,15.4980582 L0.500660055,14.7296115 L2.19786615,14.7296115 L4.23199443,14.7296115 L6.98090152,14.7296115 L9.0150298,14.7296115 L11.7639369,14.7296115 L13.7980652,14.7296115 L15.4952713,14.7296115 L15.4952713,15.4980582 L15.4952713,15.4980582 Z" id="Shape"></path>
                <path d="M7.99796566,3.95246151 C8.59938749,3.95246151 9.09060113,3.46115952 9.09060113,2.85962952 C9.09060113,2.25809952 8.59938749,1.76679754 7.99796566,1.76679754 C7.39654383,1.76679754 6.90533019,2.25809952 6.90533019,2.85962952 C6.90533019,3.46115952 7.39654383,3.95246151 7.99796566,3.95246151 Z M7.99796566,2.26754764 C8.32544142,2.26754764 8.58994107,2.53209486 8.58994107,2.85962952 C8.58994107,3.18716418 8.32544142,3.45171141 7.99796566,3.45171141 C7.6704899,3.45171141 7.40599025,3.18716418 7.40599025,2.85962952 C7.40599025,2.53209486 7.6704899,2.26754764 7.99796566,2.26754764 Z" id="Shape"></path>
            </g>
        </g>
    </g>
</svg>