<?xml version="1.0" encoding="UTF-8"?>
<svg width="115px" height="112px" viewBox="0 0 115 112" version="1.1" xmlns="http://www.w3.org/2000/svg" xmlns:xlink="http://www.w3.org/1999/xlink">
    <!-- Generator: Sketch 41.2 (35397) - http://www.bohemiancoding.com/sketch -->
    <title>icon-explore</title>
    <desc>Created with Sketch.</desc>
    <defs></defs>
    <g id="Home" stroke="none" stroke-width="1" fill="none" fill-rule="evenodd">
        <g id="icon-explore" fill="#1879FB">
            <g id="noun_550292_cc-copy">
                <path d="M22.6676225,43.8900836 C21.8112306,43.8900836 21.1154122,43.2477897 21.0618877,42.3913978 C21.0083632,41.8026284 21.0083632,41.213859 21.0083632,40.6250896 C21.0083632,39.0193548 21.1689367,37.4136201 21.4365591,35.8614098 C21.5971326,35.0050179 22.4535245,34.4162485 23.3099164,34.576822 C24.1663082,34.7373955 24.7550777,35.5937873 24.5945042,36.4501792 C24.3268817,37.841816 24.2198327,39.2334528 24.2198327,40.6786141 C24.2198327,41.213859 24.2198327,41.7491039 24.2733572,42.2308244 C24.3268817,43.1407407 23.6845878,43.8900836 22.7746714,43.9436081 C22.721147,43.8900836 22.721147,43.8900836 22.6676225,43.8900836 Z" id="Shape"></path>
                <path d="M25.0227001,31.5259259 C24.8086022,31.5259259 24.5409797,31.4724014 24.3268817,31.3653524 C23.5240143,30.990681 23.2028674,30.0272401 23.5775388,29.2243728 C27.9665472,20.0181601 37.3868578,14.0769415 47.5565114,14.0769415 C48.4664277,14.0769415 49.3763441,14.1304659 50.2862605,14.2375149 C51.1426523,14.3445639 51.7849462,15.0939068 51.7314217,16.0038232 C51.6243728,16.8602151 50.8750299,17.502509 49.9651135,17.4489845 C49.1622461,17.39546 48.3593787,17.3419355 47.5565114,17.3419355 C38.6179211,17.3419355 30.3216249,22.5873357 26.4678614,30.6695341 C26.2002389,31.1512545 25.6114695,31.5259259 25.0227001,31.5259259 Z" id="Shape"></path>
                <path d="M114.087455,23.1225806 C113.445161,22.4802867 112.48172,22.4802867 111.839427,23.0690562 L102.633214,31.9541219 C102.365591,31.9005974 102.097969,31.8470729 101.776822,31.8470729 C101.616249,31.8470729 101.5092,31.8470729 101.348626,31.9005974 L99.9569892,30.1342891 C100.064038,29.8131422 100.171087,29.4384707 100.171087,29.0637993 C100.171087,27.3510155 98.7794504,25.9058542 97.0131422,25.9058542 C95.2468339,25.9058542 93.8551971,27.297491 93.8551971,29.0637993 C93.8551971,29.3314217 93.9087216,29.5990442 93.9622461,29.8666667 L90.8578256,32.9710872 C90.2155317,33.6133811 90.2155317,34.6303465 90.8578256,35.2191159 C91.1789725,35.5402628 91.6071685,35.7008363 91.9818399,35.7008363 C92.3565114,35.7008363 92.7847073,35.5402628 93.1058542,35.2191159 L96.2102748,32.1146953 C96.4778973,32.1682198 96.7455197,32.2217443 97.0131422,32.2217443 C97.1737157,32.2217443 97.3342891,32.2217443 97.4948626,32.1682198 L98.8329749,33.8810036 C98.7259259,34.2021505 98.6188769,34.576822 98.6188769,35.0050179 C98.6188769,36.7178017 100.010514,38.162963 101.776822,38.162963 C103.54313,38.162963 104.934767,36.7713262 104.934767,35.0050179 C104.934767,34.7373955 104.881243,34.5232975 104.827718,34.3091995 L114.033931,25.4241338 C114.729749,24.7818399 114.729749,23.7648746 114.087455,23.1225806 Z" id="Shape"></path>
                <path d="M47.6635603,8.51039427 C29.572282,8.51039427 14.9065711,23.2296296 14.9065711,41.2673835 C14.9065711,59.3586619 29.6258065,74.0243728 47.6635603,74.0243728 C65.7013142,74.0243728 80.4205496,59.3051374 80.4205496,41.2673835 C80.4740741,23.2296296 65.7548387,8.51039427 47.6635603,8.51039427 Z M47.6635603,70.8664277 C31.3385902,70.8664277 18.1180406,57.5923536 18.1180406,41.320908 C18.1180406,25.0494624 31.3921147,11.7753883 47.6635603,11.7753883 C63.9885305,11.7753883 77.20908,25.0494624 77.20908,41.320908 C77.20908,57.5923536 63.9885305,70.8664277 47.6635603,70.8664277 Z" id="Shape"></path>
                <path d="M65.2731183,23.0690562 L58.6360812,30.7230585 C56.1739546,29.1708483 53.2301075,28.2609319 50.0721625,28.2609319 C41.1335723,28.2609319 33.8007168,35.5402628 33.8007168,44.5323775 C33.8007168,49.2960573 35.888172,53.6315412 39.1531661,56.5753883 L34.9782557,62.0348865 C34.4430108,62.7307049 34.5500597,63.7476703 35.2994026,64.2829152 C35.5670251,64.4970131 35.9416965,64.6040621 36.2628435,64.6040621 C36.7445639,64.6040621 37.2262843,64.3899642 37.5474313,63.9617682 L41.7223417,58.50227 C44.1309438,59.9474313 46.9677419,60.8038232 50.018638,60.8038232 C58.9572282,60.8038232 66.2900836,53.5244922 66.2900836,44.5323775 C66.2900836,39.8757467 64.3096774,35.6473118 61.1517324,32.7034648 L67.6817204,25.1565114 C68.2704898,24.460693 68.1634409,23.4972521 67.521147,22.9084827 C66.878853,22.3197133 65.8618877,22.4267622 65.2731183,23.0690562 Z M63.1321386,44.5323775 C63.1321386,51.7046595 57.2979689,57.5923536 50.0721625,57.5923536 C42.8998805,57.5923536 37.0121864,51.758184 37.0121864,44.5323775 C37.0121864,37.3065711 42.846356,31.4724014 50.0721625,31.4724014 C57.2979689,31.5259259 63.1321386,37.3600956 63.1321386,44.5323775 Z" id="Shape"></path>
                <path d="M55.7457587,40.6786141 L48.1988053,48.2255675 L45.2014337,45.2281959 C44.5591398,44.585902 43.5421744,44.585902 42.953405,45.2281959 C42.3111111,45.8704898 42.3111111,46.8874552 42.953405,47.4762246 L47.0747909,51.5976105 C47.3959379,51.9187575 47.7706093,52.0793309 48.1988053,52.0793309 C48.6270012,52.0793309 49.0551971,51.9187575 49.3228196,51.5976105 L58.0473118,42.8731183 C58.6896057,42.2308244 58.6896057,41.213859 58.0473118,40.6250896 C57.4050179,40.0363202 56.3880526,40.0363202 55.7457587,40.6786141 Z" id="Shape"></path>
                <path d="M36.316368,82.6953405 C35.6205496,82.1600956 34.6035842,82.3206691 34.0683393,83.0164875 L22.9887694,98.0568698 C22.721147,98.0568698 22.4535245,98.1103943 22.2394265,98.1639188 L19.5632019,95.4876941 C19.6167264,95.2200717 19.6702509,94.9524492 19.6702509,94.6848268 C19.6702509,92.972043 18.2786141,91.5268817 16.5123059,91.5268817 C14.7459976,91.5268817 13.3543608,92.9185185 13.3543608,94.6848268 C13.3543608,95.0059737 13.4078853,95.2735962 13.4614098,95.5412186 L9.44707288,99.823178 C8.53715651,99.2879331 7.52019116,99.0203106 6.39617682,99.0203106 C3.02413381,99.0203106 0.240860215,101.75006 0.240860215,105.175627 C0.240860215,108.54767 2.97060932,111.330944 6.39617682,111.330944 C9.82174432,111.330944 12.5514934,108.601195 12.5514934,105.175627 C12.5514934,104.051613 12.2303465,102.981123 11.6951016,102.124731 L15.762963,97.7892473 C15.9770609,97.8427718 16.1911589,97.8427718 16.4587814,97.8427718 C16.7264038,97.8427718 16.9940263,97.7892473 17.2616487,97.7357228 L19.9378734,100.411947 C19.8843489,100.67957 19.8308244,100.947192 19.8308244,101.214815 C19.8308244,102.927599 21.2224612,104.37276 22.9887694,104.37276 C24.7550777,104.37276 26.1467145,102.981123 26.1467145,101.214815 C26.1467145,100.67957 25.986141,100.144325 25.772043,99.716129 L36.6375149,84.9968937 C37.1727599,84.2475508 37.0121864,83.2305854 36.316368,82.6953405 Z M6.44970131,108.119474 C4.84396655,108.119474 3.50585424,106.781362 3.50585424,105.175627 C3.50585424,103.569892 4.84396655,102.23178 6.44970131,102.23178 C8.05543608,102.23178 9.39354839,103.569892 9.39354839,105.175627 C9.39354839,106.781362 8.05543608,108.119474 6.44970131,108.119474 Z" id="Shape"></path>
                <path d="M112.214098,94.6313023 L81.5980884,64.0152927 C85.9870968,57.5388292 88.5027479,49.7242533 88.5027479,41.320908 C88.5027479,18.7870968 70.1973716,0.48172043 47.6635603,0.48172043 C25.1297491,0.48172043 6.82437276,18.7870968 6.82437276,41.2673835 C6.82437276,63.8011947 25.1297491,82.1065711 47.6635603,82.1065711 C56.0669056,82.1065711 63.8814815,79.5373955 70.357945,75.2019116 L78.3330944,83.1770609 L78.3330944,83.1770609 L78.3330944,83.1770609 L100.973955,105.817921 C102.526165,107.370131 104.560096,108.119474 106.594026,108.119474 C108.627957,108.119474 110.661888,107.370131 112.214098,105.817921 C115.318519,102.767025 115.318519,97.7357228 112.214098,94.6313023 Z M47.6635603,78.948626 C26.8960573,78.948626 10.0358423,62.0348865 10.0358423,41.320908 C10.0358423,20.553405 26.9495818,3.69318996 47.6635603,3.69318996 C68.3775388,3.69318996 85.2912784,20.6069295 85.2912784,41.320908 C85.3448029,62.0348865 68.4310633,78.948626 47.6635603,78.948626 Z M73.0341697,73.3285544 C75.4962963,71.3481481 77.744325,69.1001195 79.7247312,66.6379928 L82.3474313,69.260693 L75.6568698,75.9512545 L73.0341697,73.3285544 Z M77.9048984,78.1992832 L84.59546,71.5087216 L86.2011947,73.1144564 L79.5106332,79.8050179 L77.9048984,78.1992832 Z M109.966069,103.569892 C108.146237,105.389725 105.148865,105.389725 103.275508,103.569892 L81.7586619,82.0530466 L88.4492234,75.3624851 L109.966069,96.8793309 C111.785902,98.7526882 111.785902,101.75006 109.966069,103.569892 Z" id="Shape"></path>
            </g>
        </g>
    </g>
</svg>