<?xml version="1.0" encoding="UTF-8"?>
<svg width="84px" height="112px" viewBox="0 0 84 112" version="1.1" xmlns="http://www.w3.org/2000/svg" xmlns:xlink="http://www.w3.org/1999/xlink">
    <!-- Generator: Sketch 41.2 (35397) - http://www.bohemiancoding.com/sketch -->
    <title>icon-visualize</title>
    <desc>Created with Sketch.</desc>
    <defs></defs>
    <g id="Home" stroke="none" stroke-width="1" fill="none" fill-rule="evenodd">
        <g id="icon-visualize" fill="#1879FB">
            <g id="visualize-copy">
                <path d="M25.599,47.4285 C34.44,47.4285 41.608,40.2605 41.608,31.4195 L25.599,31.4195 L25.599,15.41225 C16.758,15.41225 9.59,22.58025 9.59,31.42125 C9.59,40.26225 16.758,47.4285 25.599,47.4285 Z M23.149,18.0845 L23.149,31.42125 L23.149,33.87125 L25.599,33.87125 L38.93575,33.87125 C37.779,40.18175 32.2385,44.98025 25.599,44.98025 C18.123,44.98025 12.04,38.89725 12.04,31.42125 C12.04175,24.78175 16.8385,19.24125 23.149,18.0845 Z" id="Shape"></path>
                <path d="M27.30875,13.7025 L27.30875,29.7115 L43.31775,29.7115 C43.31775,20.8705 36.14975,13.7025 27.30875,13.7025 Z M29.75875,16.37475 C35.27475,17.38625 39.634,21.7455 40.6455,27.2615 L29.75875,27.2615 L29.75875,16.37475 Z" id="Shape"></path>
                <path d="M84,99.16725 L84,0 L0,0 L0,112 L71.16725,112 L84,99.16725 Z M71.53825,108.164 L71.53825,99.53825 L80.164,99.53825 L71.53825,108.164 Z M2.45,2.45 L81.55,2.45 L81.55,97.08825 L69.0865,97.08825 L69.0865,109.55 L2.45,109.55 L2.45,2.45 Z" id="Shape"></path>
                <path d="M12.663,68.5895 C12.663,72.72125 16.0125,76.07075 20.14425,76.07075 C24.276,76.07075 27.6255,72.72125 27.6255,68.5895 L20.14425,68.5895 L20.14425,61.10825 C16.0125,61.10825 12.663,64.45775 12.663,68.5895 Z" id="Shape"></path>
                <path d="M21.68775,59.56475 L21.68775,67.046 L29.169,67.046 C29.169,62.91425 25.8195,59.56475 21.68775,59.56475 Z" id="Shape"></path>
                <path d="M20.146,80.563 C16.01425,80.563 12.66475,83.9125 12.66475,88.04425 C12.66475,92.176 16.01425,95.5255 20.146,95.5255 C24.27775,95.5255 27.62725,92.176 27.62725,88.04425 L20.146,88.04425 L20.146,80.563 Z" id="Shape"></path>
                <path d="M21.68775,79.02125 L21.68775,86.5025 L29.169,86.5025 C29.169,82.37075 25.8195,79.02125 21.68775,79.02125 Z" id="Shape"></path>
                <rect id="Rectangle-path" x="34.783" y="64.26175" width="36.554" height="2.45"></rect>
                <rect id="Rectangle-path" x="34.783" y="70.40075" width="36.554" height="2.45"></rect>
                <rect id="Rectangle-path" x="34.783" y="83.0025" width="36.554" height="2.45"></rect>
                <rect id="Rectangle-path" x="34.783" y="89.1415" width="36.554" height="2.45"></rect>
                <rect id="Rectangle-path" x="48.993" y="39.046" width="2.45" height="5.62975"></rect>
                <rect id="Rectangle-path" x="53.9315" y="25.97" width="2.45" height="18.70575"></rect>
                <rect id="Rectangle-path" x="58.8735" y="16.46575" width="2.45" height="28.21175"></rect>
                <rect id="Rectangle-path" x="63.81375" y="25.375" width="2.45" height="19.3025"></rect>
                <rect id="Rectangle-path" x="68.754" y="34.45925" width="2.45" height="10.2165"></rect>
            </g>
        </g>
    </g>
</svg>