<?xml version="1.0" encoding="UTF-8"?>
<svg width="14px" height="16px" viewBox="0 0 14 16" version="1.1" xmlns="http://www.w3.org/2000/svg" xmlns:xlink="http://www.w3.org/1999/xlink">
    <!-- Generator: Sketch 41.2 (35397) - http://www.bohemiancoding.com/sketch -->
    <title>icon-nav-datasets</title>
    <desc>Created with Sketch.</desc>
    <defs></defs>
    <g id="Home" stroke="none" stroke-width="1" fill="none" fill-rule="evenodd">
        <g id="icon-nav-datasets" fill="#F3F5F7">
            <g id="noun_727288">
                <path d="M6.94736842,0 C3.15789474,0 0.0421052632,0.884210526 0,2.27368421 L0,13.1789474 L0,13.7263158 C0,14.9894737 3.32631579,15.8736842 6.94736842,15.8736842 C10.5684211,15.8736842 13.8947368,15.0315789 13.8947368,13.7263158 L13.8947368,2.27368421 C13.9368421,0.926315789 10.7368421,0 6.94736842,0 Z M6.94736842,4.08421053 C3.07368421,4.08421053 0.463157895,3.11578947 0.463157895,2.23157895 C0.463157895,1.34736842 3.07368421,0.378947368 6.94736842,0.378947368 C10.8210526,0.378947368 13.4315789,1.34736842 13.4315789,2.23157895 C13.4315789,3.15789474 10.8210526,4.08421053 6.94736842,4.08421053 Z M13.4315789,13.6842105 C13.2210526,14.5684211 10.6526316,15.4105263 6.94736842,15.4105263 C3.24210526,15.4105263 0.673684211,14.5263158 0.463157895,13.6842105 L0.463157895,13.6842105 L0.463157895,10.2736842 C0.757894737,10.6526316 1.38947368,10.9894737 2.23157895,11.2421053 C3.45263158,11.6210526 5.09473684,11.8315789 6.94736842,11.8315789 C10.0631579,11.8315789 12.6315789,11.2 13.4315789,10.3157895 L13.4315789,13.6842105 Z M13.4315789,9.81052632 C13.1789474,10.6947368 10.6526316,11.5368421 6.94736842,11.5368421 C5.09473684,11.5368421 3.53684211,11.3263158 2.4,10.9894737 C1.26315789,10.6526316 0.547368421,10.2315789 0.463157895,9.81052632 L0.463157895,6.69473684 C1.09473684,7.45263158 2.90526316,8 5.26315789,8.21052632 C5.81052632,8.25263158 6.35789474,8.25263158 6.94736842,8.25263158 C10.0631579,8.25263158 12.6315789,7.62105263 13.4315789,6.73684211 L13.4315789,9.81052632 Z M13.4315789,6.18947368 C13.1789474,7.07368421 10.6526316,7.91578947 6.94736842,7.91578947 C6.48421053,7.91578947 6.06315789,7.91578947 5.64210526,7.87368421 C2.65263158,7.70526316 0.673684211,6.90526316 0.463157895,6.18947368 L0.463157895,2.90526316 C1.22105263,3.70526316 3.83157895,4.46315789 6.94736842,4.46315789 C8.58947368,4.46315789 10.1052632,4.29473684 11.2421053,4 C12.2526316,3.74736842 13.0526316,3.36842105 13.4315789,2.94736842 L13.4315789,6.18947368 Z" id="Shape"></path>
                <path d="M6,5.75789474 C6,6.17894737 6.33684211,6.51578947 6.75789474,6.51578947 C7.17894737,6.51578947 7.51578947,6.17894737 7.51578947,5.75789474 C7.51578947,5.33684211 7.17894737,5 6.75789474,5 C6.33684211,5 6,5.33684211 6,5.75789474 Z M7.17894737,5.75789474 C7.17894737,6.01052632 6.96842105,6.17894737 6.75789474,6.17894737 C6.50526316,6.17894737 6.33684211,5.96842105 6.33684211,5.75789474 C6.33684211,5.54736842 6.54736842,5.33684211 6.75789474,5.33684211 C7.01052632,5.33684211 7.17894737,5.50526316 7.17894737,5.75789474 Z" id="Shape"></path>
                <path d="M6.75789474,10.5157895 C7.17894737,10.5157895 7.51578947,10.1789474 7.51578947,9.75789474 C7.51578947,9.33684211 7.17894737,9 6.75789474,9 C6.33684211,9 6,9.33684211 6,9.75789474 C6,10.1789474 6.33684211,10.5157895 6.75789474,10.5157895 Z M6.75789474,9.33684211 C7.01052632,9.33684211 7.17894737,9.54736842 7.17894737,9.75789474 C7.17894737,10.0105263 6.96842105,10.1789474 6.75789474,10.1789474 C6.50526316,10.1789474 6.33684211,9.96842105 6.33684211,9.75789474 C6.33684211,9.50526316 6.50526316,9.33684211 6.75789474,9.33684211 Z" id="Shape"></path>
                <path d="M6.75789474,13.5157895 C7.17894737,13.5157895 7.51578947,13.1789474 7.51578947,12.7578947 C7.51578947,12.3368421 7.17894737,12 6.75789474,12 C6.33684211,12 6,12.3368421 6,12.7578947 C6,13.1789474 6.33684211,13.5157895 6.75789474,13.5157895 Z M6.75789474,12.3368421 C7.01052632,12.3368421 7.17894737,12.5473684 7.17894737,12.7578947 C7.17894737,13.0105263 6.96842105,13.1789474 6.75789474,13.1789474 C6.50526316,13.1789474 6.33684211,12.9684211 6.33684211,12.7578947 C6.33684211,12.5052632 6.50526316,12.3368421 6.75789474,12.3368421 Z" id="Shape"></path>
            </g>
        </g>
    </g>
</svg>
