<?xml version="1.0" encoding="UTF-8"?>
<svg width="18px" height="16px" viewBox="0 0 18 16" version="1.1" xmlns="http://www.w3.org/2000/svg" xmlns:xlink="http://www.w3.org/1999/xlink">
    <!-- Generator: Sketch 41.2 (35397) - http://www.bohemiancoding.com/sketch -->
    <title>icon-nav-visualize</title>
    <desc>Created with Sketch.</desc>
    <defs></defs>
    <g id="Home" stroke="none" stroke-width="1" fill="none" fill-rule="evenodd">
        <g id="icon-nav-visualize" fill="#F3F5F7">
            <g id="visualize">
                <g id="Group">
                    <path d="M16.96,0 L0.32,0 C0.14336,0 0,0.14336 0,0.32 L0,1.6 C0,1.77664 0.14336,1.92 0.32,1.92 L1.28,1.92 L1.28,13.12 C1.28,13.29696 1.42336,13.44 1.6,13.44 L8.32,13.44 L8.32,14.1392 C7.94816,14.27168 7.68,14.62368 7.68,15.04 C7.68,15.56928 8.11072,16 8.64,16 C9.16928,16 9.6,15.56928 9.6,15.04 C9.6,14.62336 9.33152,14.27168 8.96,14.1392 L8.96,13.44 L15.68,13.44 C15.85696,13.44 16,13.29696 16,13.12 L16,1.92 L16.96,1.92 C17.13696,1.92 17.28,1.77664 17.28,1.6 L17.28,0.32 C17.28,0.14336 17.13696,0 16.96,0 Z M8.64,15.36 C8.46368,15.36 8.32,15.21664 8.32,15.04 C8.32,14.86336 8.46368,14.72 8.64,14.72 C8.81632,14.72 8.96,14.86336 8.96,15.04 C8.96,15.21664 8.81632,15.36 8.64,15.36 Z M15.36,12.8 L1.92,12.8 L1.92,1.92 L15.36,1.92 L15.36,12.8 Z M16.64,1.28 L0.64,1.28 L0.64,0.64 L16.64,0.64 L16.64,1.28 Z" id="Shape"></path>
                    <path d="M4.16,11.52 L5.44,11.52 C5.61664,11.52 5.76,11.37696 5.76,11.2 L5.76,9.92 C5.76,9.74304 5.61664,9.6 5.44,9.6 L4.16,9.6 C3.98336,9.6 3.84,9.74304 3.84,9.92 L3.84,11.2 C3.84,11.37696 3.98336,11.52 4.16,11.52 Z M4.48,10.24 L5.12,10.24 L5.12,10.88 L4.48,10.88 L4.48,10.24 Z" id="Shape"></path>
                    <path d="M6.72,11.52 L8,11.52 C8.17664,11.52 8.32,11.37696 8.32,11.2 L8.32,8.64 C8.32,8.46304 8.17664,8.32 8,8.32 L6.72,8.32 C6.54336,8.32 6.4,8.46304 6.4,8.64 L6.4,11.2 C6.4,11.37696 6.54336,11.52 6.72,11.52 Z M7.04,8.96 L7.68,8.96 L7.68,10.88 L7.04,10.88 L7.04,8.96 Z" id="Shape"></path>
                    <path d="M9.28,11.52 L10.56,11.52 C10.73696,11.52 10.88,11.37696 10.88,11.2 L10.88,6.72 C10.88,6.54336 10.73696,6.4 10.56,6.4 L9.28,6.4 C9.10304,6.4 8.96,6.54336 8.96,6.72 L8.96,11.2 C8.96,11.37696 9.10304,11.52 9.28,11.52 Z M9.6,7.04 L10.24,7.04 L10.24,10.88 L9.6,10.88 L9.6,7.04 Z" id="Shape"></path>
                    <path d="M11.84,11.52 L13.12,11.52 C13.29696,11.52 13.44,11.37696 13.44,11.2 L13.44,4.16 C13.44,3.98336 13.29696,3.84 13.12,3.84 L11.84,3.84 C11.66304,3.84 11.52,3.98336 11.52,4.16 L11.52,11.2 C11.52,11.37696 11.66304,11.52 11.84,11.52 Z M12.16,4.48 L12.8,4.48 L12.8,10.88 L12.16,10.88 L12.16,4.48 Z" id="Shape"></path>
                </g>
            </g>
        </g>
    </g>
</svg>