<?xml version="1.0" encoding="UTF-8"?>
<svg width="112px" height="112px" viewBox="0 0 112 112" version="1.1" xmlns="http://www.w3.org/2000/svg" xmlns:xlink="http://www.w3.org/1999/xlink">
    <!-- Generator: Sketch 41.2 (35397) - http://www.bohemiancoding.com/sketch -->
    <title>icon-join</title>
    <desc>Created with Sketch.</desc>
    <defs></defs>
    <g id="Home" stroke="none" stroke-width="1" fill="none" fill-rule="evenodd">
        <g id="icon-join" fill="#1879FB">
            <g id="Organization-Copy">
                <path d="M110.23023,99.6240757 L98.3497872,99.6240757 L98.3497872,90.8278805 C98.3497872,89.857874 97.5562882,89.0862779 96.6084978,89.0862779 L96.1015401,89.0862779 L96.1015401,45.2375754 L96.6084978,45.2375754 C97.5783299,45.2375754 98.3497872,44.4439337 98.3497872,43.4959728 L98.3497872,34.6997776 L110.23023,34.6997776 C111.023729,34.6997776 111.70702,34.1706832 111.927436,33.3990871 C112.125811,32.627491 111.795186,31.8338494 111.111895,31.4370285 L56.8674251,0.242501623 C56.3384258,-0.0661368062 55.6551351,-0.0661368062 55.1261357,0.242501623 L0.881665506,31.4149829 C0.198374739,31.8118038 -0.132249826,32.627491 0.0661249129,33.3770415 C0.264499652,34.1486376 0.969832056,34.677732 1.76333101,34.677732 L13.6437737,34.677732 L13.6437737,43.4739272 C13.6437737,44.4439337 14.4372727,45.2155298 15.3850631,45.2155298 L15.8920207,45.2155298 L15.8920207,89.0642323 L15.3850631,89.0642323 C14.415231,89.0642323 13.6437737,89.857874 13.6437737,90.8058348 L13.6437737,99.6020301 L1.74128937,99.6020301 C0.771457318,99.6020301 0,100.395672 0,101.343633 L0,110.205965 C0,111.175971 0.793498955,111.947567 1.74128937,111.947567 L110.208188,111.947567 C111.17802,111.947567 111.949478,111.153926 111.949478,110.205965 L111.949478,101.343633 C111.971519,100.395672 111.17802,99.6240757 110.23023,99.6240757 Z M64.8464979,99.6240757 L64.8464979,90.8278805 C64.8464979,89.857874 64.052999,89.0862779 63.1052086,89.0862779 L62.5982509,89.0862779 L62.5982509,45.2375754 L63.1052086,45.2375754 C64.0750406,45.2375754 64.8464979,44.4439337 64.8464979,43.4959728 L64.8464979,34.6997776 L80.5842272,34.6997776 L80.5842272,43.4959728 C80.5842272,44.4659793 81.3777262,45.2375754 82.3255166,45.2375754 L82.8324743,45.2375754 L82.8324743,89.0642323 L82.3255166,89.0642323 C81.3556845,89.0642323 80.5842272,89.857874 80.5842272,90.8058348 L80.5842272,99.6020301 L64.8464979,99.6020301 L64.8464979,99.6240757 Z M31.3652504,99.6240757 L31.3652504,90.8278805 C31.3652504,89.857874 30.5717514,89.0862779 29.623961,89.0862779 L29.0949617,89.0862779 L29.0949617,45.2375754 L29.6019194,45.2375754 C30.5717514,45.2375754 31.3432087,44.4439337 31.3432087,43.4959728 L31.3432087,34.6997776 L47.080938,34.6997776 L47.080938,43.4959728 C47.080938,44.4659793 47.874437,45.2375754 48.8222274,45.2375754 L49.329185,45.2375754 L49.329185,89.0642323 L48.8222274,89.0642323 C47.8523953,89.0642323 47.080938,89.857874 47.080938,90.8058348 L47.080938,99.6020301 L31.3652504,99.6020301 L31.3652504,99.6240757 Z M59.0936305,89.0642323 L52.8778887,89.0642323 L52.8778887,45.2375754 L59.0936305,45.2375754 L59.0936305,89.0642323 Z M61.3639192,41.7323247 L60.8349199,41.7323247 L51.1365993,41.7323247 L50.6296417,41.7323247 L50.6296417,34.677732 L61.3639192,34.677732 L61.3639192,41.7323247 Z M50.6076,92.569483 L51.1145577,92.569483 L60.8349199,92.569483 L61.3418776,92.569483 L61.3418776,99.6240757 L50.6076,99.6240757 L50.6076,92.569483 L50.6076,92.569483 Z M84.1108893,92.569483 L84.6178469,92.569483 L94.3382091,92.569483 L94.8451668,92.569483 L94.8451668,99.6240757 L84.1108893,99.6240757 L84.1108893,92.569483 Z M92.5748781,89.0642323 L86.3591363,89.0642323 L86.3591363,45.2375754 L92.5748781,45.2375754 L92.5748781,89.0642323 Z M94.8451668,41.7323247 L94.3382091,41.7323247 L84.6178469,41.7323247 L84.1108893,41.7323247 L84.1108893,34.677732 L94.8451668,34.677732 L94.8451668,41.7323247 L94.8451668,41.7323247 Z M55.9857596,3.76979795 L103.661822,31.1945269 L96.5864562,31.1945269 L82.3475582,31.1945269 L63.1052086,31.1945269 L48.8663107,31.1945269 L29.623961,31.1945269 L15.3850631,31.1945269 L8.30969739,31.1945269 L55.9857596,3.76979795 Z M27.86063,34.677732 L27.86063,41.7323247 L27.3536723,41.7323247 L17.6333101,41.7323247 L17.1263524,41.7323247 L17.1263524,34.677732 L27.86063,34.677732 Z M19.3966411,45.2375754 L25.6123829,45.2375754 L25.6123829,89.0642323 L19.3966411,89.0642323 L19.3966411,45.2375754 Z M17.1263524,92.569483 L17.6333101,92.569483 L27.3536723,92.569483 L27.86063,92.569483 L27.86063,99.6240757 L17.1263524,99.6240757 L17.1263524,92.569483 Z M108.466899,108.486408 L3.50462039,108.486408 L3.50462039,103.107281 L15.3850631,103.107281 L29.623961,103.107281 L48.8663107,103.107281 L63.1052086,103.107281 L82.3475582,103.107281 L96.5864562,103.107281 L108.466899,103.107281 L108.466899,108.486408 L108.466899,108.486408 Z" id="Shape"></path>
                <path d="M55.9857596,27.6672306 C60.1957124,27.6672306 63.6342079,24.2281167 63.6342079,20.0174067 C63.6342079,15.8066967 60.1957124,12.3675828 55.9857596,12.3675828 C51.7758068,12.3675828 48.3373114,15.8066967 48.3373114,20.0174067 C48.3373114,24.2281167 51.7758068,27.6672306 55.9857596,27.6672306 Z M55.9857596,15.8728335 C58.2780899,15.8728335 60.1295875,17.724664 60.1295875,20.0174067 C60.1295875,22.3101493 58.2780899,24.1619798 55.9857596,24.1619798 C53.6934293,24.1619798 51.8419317,22.3101493 51.8419317,20.0174067 C51.8419317,17.724664 53.6934293,15.8728335 55.9857596,15.8728335 Z" id="Shape"></path>
            </g>
        </g>
    </g>
</svg>